# ProBuilder 4.1.0
# https://unity3d.com/unity/features/worldbuilding/probuilder
# 2020/01/09 2:44:27

mtllib ./Pipe_テンプレ.mtl
o Pipe_テンプレ

g Pipe_テンプレ
v 9.549149 0 29.38926
v 0 0 0
v 9.549149 90.90909 29.38926
v 0 90.90909 0
v 5 0 0
v 13.59423 0 26.45034
v 5 90.90909 0
v 13.59423 90.90909 26.45034
v 34.54915 0 47.55283
v 34.54915 90.90909 47.55283
v 36.09424 0 42.79754
v 36.09424 90.90909 42.79754
v 65.45085 0 47.55283
v 65.45085 90.90909 47.55283
v 63.90576 0 42.79754
v 63.90576 90.90909 42.79754
v 90.45085 0 29.38926
v 90.45085 90.90909 29.38926
v 86.40577 0 26.45033
v 86.40577 90.90909 26.45033
v 100 0 -4.371139E-06
v 100 90.90909 -4.371139E-06
v 95 0 -3.934025E-06
v 95 90.90909 -3.934025E-06
v 90.45085 0 -29.38926
v 90.45085 90.90909 -29.38926
v 86.40577 0 -26.45033
v 86.40577 90.90909 -26.45033
v 65.45085 0 -47.55283
v 65.45085 90.90909 -47.55283
v 63.90577 0 -42.79754
v 63.90577 90.90909 -42.79754
v 34.54914 0 -47.55283
v 34.54914 90.90909 -47.55283
v 36.09423 0 -42.79754
v 36.09423 90.90909 -42.79754
v 9.549152 0 -29.38927
v 9.549152 90.90909 -29.38927
v 13.59424 0 -26.45034
v 13.59424 90.90909 -26.45034
v 9.549149 181.8182 29.38926
v 0 181.8182 0
v 5 181.8182 0
v 13.59423 181.8182 26.45034
v 34.54915 181.8182 47.55283
v 36.09424 181.8182 42.79754
v 65.45085 181.8182 47.55283
v 63.90576 181.8182 42.79754
v 90.45085 181.8182 29.38926
v 86.40577 181.8182 26.45033
v 100 181.8182 -4.371139E-06
v 95 181.8182 -3.934025E-06
v 90.45085 181.8182 -29.38926
v 86.40577 181.8182 -26.45033
v 65.45085 181.8182 -47.55283
v 63.90577 181.8182 -42.79754
v 34.54914 181.8182 -47.55283
v 36.09423 181.8182 -42.79754
v 9.549152 181.8182 -29.38927
v 13.59424 181.8182 -26.45034
v 9.549149 272.7273 29.38926
v 0 272.7273 0
v 5 272.7273 0
v 13.59423 272.7273 26.45034
v 34.54915 272.7273 47.55283
v 36.09424 272.7273 42.79754
v 65.45085 272.7273 47.55283
v 63.90576 272.7273 42.79754
v 90.45085 272.7273 29.38926
v 86.40577 272.7273 26.45033
v 100 272.7273 -4.371139E-06
v 95 272.7273 -3.934025E-06
v 90.45085 272.7273 -29.38926
v 86.40577 272.7273 -26.45033
v 65.45085 272.7273 -47.55283
v 63.90577 272.7273 -42.79754
v 34.54914 272.7273 -47.55283
v 36.09423 272.7273 -42.79754
v 9.549152 272.7273 -29.38927
v 13.59424 272.7273 -26.45034
v 9.549149 363.6364 29.38926
v 0 363.6364 0
v 5 363.6364 0
v 13.59423 363.6364 26.45034
v 34.54915 363.6364 47.55283
v 36.09424 363.6364 42.79754
v 65.45085 363.6364 47.55283
v 63.90576 363.6364 42.79754
v 90.45085 363.6364 29.38926
v 86.40577 363.6364 26.45033
v 100 363.6364 -4.371139E-06
v 95 363.6364 -3.934025E-06
v 90.45085 363.6364 -29.38926
v 86.40577 363.6364 -26.45033
v 65.45085 363.6364 -47.55283
v 63.90577 363.6364 -42.79754
v 34.54914 363.6364 -47.55283
v 36.09423 363.6364 -42.79754
v 9.549152 363.6364 -29.38927
v 13.59424 363.6364 -26.45034
v 9.549149 454.5454 29.38926
v 0 454.5454 0
v 5 454.5454 0
v 13.59423 454.5454 26.45034
v 34.54915 454.5454 47.55283
v 36.09424 454.5454 42.79754
v 65.45085 454.5454 47.55283
v 63.90576 454.5454 42.79754
v 90.45085 454.5454 29.38926
v 86.40577 454.5454 26.45033
v 100 454.5454 -4.371139E-06
v 95 454.5454 -3.934025E-06
v 90.45085 454.5454 -29.38926
v 86.40577 454.5454 -26.45033
v 65.45085 454.5454 -47.55283
v 63.90577 454.5454 -42.79754
v 34.54914 454.5454 -47.55283
v 36.09423 454.5454 -42.79754
v 9.549152 454.5454 -29.38927
v 13.59424 454.5454 -26.45034
v 9.549149 545.4545 29.38926
v 0 545.4545 0
v 5 545.4545 0
v 13.59423 545.4545 26.45034
v 34.54915 545.4545 47.55283
v 36.09424 545.4545 42.79754
v 65.45085 545.4545 47.55283
v 63.90576 545.4545 42.79754
v 90.45085 545.4545 29.38926
v 86.40577 545.4545 26.45033
v 100 545.4545 -4.371139E-06
v 95 545.4545 -3.934025E-06
v 90.45085 545.4545 -29.38926
v 86.40577 545.4545 -26.45033
v 65.45085 545.4545 -47.55283
v 63.90577 545.4545 -42.79754
v 34.54914 545.4545 -47.55283
v 36.09423 545.4545 -42.79754
v 9.549152 545.4545 -29.38927
v 13.59424 545.4545 -26.45034
v 9.549149 636.3636 29.38926
v 0 636.3636 0
v 5 636.3636 0
v 13.59423 636.3636 26.45034
v 34.54915 636.3636 47.55283
v 36.09424 636.3636 42.79754
v 65.45085 636.3636 47.55283
v 63.90576 636.3636 42.79754
v 90.45085 636.3636 29.38926
v 86.40577 636.3636 26.45033
v 100 636.3636 -4.371139E-06
v 95 636.3636 -3.934025E-06
v 90.45085 636.3636 -29.38926
v 86.40577 636.3636 -26.45033
v 65.45085 636.3636 -47.55283
v 63.90577 636.3636 -42.79754
v 34.54914 636.3636 -47.55283
v 36.09423 636.3636 -42.79754
v 9.549152 636.3636 -29.38927
v 13.59424 636.3636 -26.45034
v 9.549149 727.2727 29.38926
v 0 727.2727 0
v 5 727.2727 0
v 13.59423 727.2727 26.45034
v 34.54915 727.2727 47.55283
v 36.09424 727.2727 42.79754
v 65.45085 727.2727 47.55283
v 63.90576 727.2727 42.79754
v 90.45085 727.2727 29.38926
v 86.40577 727.2727 26.45033
v 100 727.2727 -4.371139E-06
v 95 727.2727 -3.934025E-06
v 90.45085 727.2727 -29.38926
v 86.40577 727.2727 -26.45033
v 65.45085 727.2727 -47.55283
v 63.90577 727.2727 -42.79754
v 34.54914 727.2727 -47.55283
v 36.09423 727.2727 -42.79754
v 9.549152 727.2727 -29.38927
v 13.59424 727.2727 -26.45034
v 9.549149 818.1818 29.38926
v 0 818.1818 0
v 5 818.1818 0
v 13.59423 818.1818 26.45034
v 34.54915 818.1818 47.55283
v 36.09424 818.1818 42.79754
v 65.45085 818.1818 47.55283
v 63.90576 818.1818 42.79754
v 90.45085 818.1818 29.38926
v 86.40577 818.1818 26.45033
v 100 818.1818 -4.371139E-06
v 95 818.1818 -3.934025E-06
v 90.45085 818.1818 -29.38926
v 86.40577 818.1818 -26.45033
v 65.45085 818.1818 -47.55283
v 63.90577 818.1818 -42.79754
v 34.54914 818.1818 -47.55283
v 36.09423 818.1818 -42.79754
v 9.549152 818.1818 -29.38927
v 13.59424 818.1818 -26.45034
v 9.549149 909.0909 29.38926
v 0 909.0909 0
v 5 909.0909 0
v 13.59423 909.0909 26.45034
v 34.54915 909.0909 47.55283
v 36.09424 909.0909 42.79754
v 65.45085 909.0909 47.55283
v 63.90576 909.0909 42.79754
v 90.45085 909.0909 29.38926
v 86.40577 909.0909 26.45033
v 100 909.0909 -4.371139E-06
v 95 909.0909 -3.934025E-06
v 90.45085 909.0909 -29.38926
v 86.40577 909.0909 -26.45033
v 65.45085 909.0909 -47.55283
v 63.90577 909.0909 -42.79754
v 34.54914 909.0909 -47.55283
v 36.09423 909.0909 -42.79754
v 9.549152 909.0909 -29.38927
v 13.59424 909.0909 -26.45034
v 9.549149 1000 29.38926
v 0 1000 0
v 5 1000 0
v 13.59423 1000 26.45034
v 34.54915 1000 47.55283
v 36.09424 1000 42.79754
v 65.45085 1000 47.55283
v 63.90576 1000 42.79754
v 90.45085 1000 29.38926
v 86.40577 1000 26.45033
v 100 1000 -4.371139E-06
v 95 1000 -3.934025E-06
v 90.45085 1000 -29.38926
v 86.40577 1000 -26.45033
v 65.45085 1000 -47.55283
v 63.90577 1000 -42.79754
v 34.54914 1000 -47.55283
v 36.09423 1000 -42.79754
v 9.549152 1000 -29.38927
v 13.59424 1000 -26.45034

vt 30.9017 0
vt 0 0
vt 30.9017 90.90909
vt 0 90.90909
vt -1.545085 0
vt -29.35662 0
vt -1.545085 90.90909
vt -29.35662 90.90909
vt 55.9017 0
vt 25 0
vt 55.9017 90.90909
vt 25 90.90909
vt -26.54508 0
vt -54.35662 0
vt -26.54508 90.90909
vt -54.35662 90.90909
vt 65.45085 0
vt 34.54915 0
vt 65.45085 90.90909
vt 34.54915 90.90909
vt -36.09424 0
vt -63.90576 0
vt -36.09424 90.90909
vt -63.90576 90.90909
vt 25 0
vt 25 90.90909
vt -30.9017 0
vt -30.9017 90.90909
vt 29.35661 0
vt 1.545088 0
vt 29.35661 90.90909
vt 1.545088 90.90909
vt -24.99999 0
vt -55.90169 0
vt -24.99999 90.90909
vt -55.90169 90.90909
vt 54.35661 0
vt 26.54508 0
vt 54.35661 90.90909
vt 26.54508 90.90909
vt -34.54914 0
vt -65.45085 0
vt -34.54914 90.90909
vt -65.45085 90.90909
vt 63.90577 0
vt 36.09423 0
vt 63.90577 90.90909
vt 36.09423 90.90909
vt -25 0
vt -25 90.90909
vt 30.9017 181.8182
vt 0 181.8182
vt -1.545085 181.8182
vt -29.35662 181.8182
vt 55.9017 181.8182
vt 25 181.8182
vt -26.54508 181.8182
vt -54.35662 181.8182
vt 65.45085 181.8182
vt 34.54915 181.8182
vt -36.09424 181.8182
vt -63.90576 181.8182
vt 25 181.8182
vt -30.9017 181.8182
vt 29.35661 181.8182
vt 1.545088 181.8182
vt -24.99999 181.8182
vt -55.90169 181.8182
vt 54.35661 181.8182
vt 26.54508 181.8182
vt -34.54914 181.8182
vt -65.45085 181.8182
vt 63.90577 181.8182
vt 36.09423 181.8182
vt -25 181.8182
vt 30.9017 272.7273
vt 0 272.7273
vt -1.545085 272.7273
vt -29.35662 272.7273
vt 55.9017 272.7273
vt 25 272.7273
vt -26.54508 272.7273
vt -54.35662 272.7273
vt 65.45085 272.7273
vt 34.54915 272.7273
vt -36.09424 272.7273
vt -63.90576 272.7273
vt 25 272.7273
vt -30.9017 272.7273
vt 29.35661 272.7273
vt 1.545088 272.7273
vt -24.99999 272.7273
vt -55.90169 272.7273
vt 54.35661 272.7273
vt 26.54508 272.7273
vt -34.54914 272.7273
vt -65.45085 272.7273
vt 63.90577 272.7273
vt 36.09423 272.7273
vt -25 272.7273
vt 30.9017 363.6364
vt 0 363.6364
vt -1.545085 363.6364
vt -29.35662 363.6364
vt 55.9017 363.6364
vt 25 363.6364
vt -26.54508 363.6364
vt -54.35662 363.6364
vt 65.45085 363.6364
vt 34.54915 363.6364
vt -36.09424 363.6364
vt -63.90576 363.6364
vt 25 363.6364
vt -30.9017 363.6364
vt 29.35661 363.6364
vt 1.545088 363.6364
vt -24.99999 363.6364
vt -55.90169 363.6364
vt 54.35661 363.6364
vt 26.54508 363.6364
vt -34.54914 363.6364
vt -65.45085 363.6364
vt 63.90577 363.6364
vt 36.09423 363.6364
vt -25 363.6364
vt 30.9017 454.5454
vt 0 454.5454
vt -1.545085 454.5454
vt -29.35662 454.5454
vt 55.9017 454.5454
vt 25 454.5454
vt -26.54508 454.5454
vt -54.35662 454.5454
vt 65.45085 454.5454
vt 34.54915 454.5454
vt -36.09424 454.5454
vt -63.90576 454.5454
vt 25 454.5454
vt -30.9017 454.5454
vt 29.35661 454.5454
vt 1.545088 454.5454
vt -24.99999 454.5454
vt -55.90169 454.5454
vt 54.35661 454.5454
vt 26.54508 454.5454
vt -34.54914 454.5454
vt -65.45085 454.5454
vt 63.90577 454.5454
vt 36.09423 454.5454
vt -25 454.5454
vt 30.9017 545.4545
vt 0 545.4545
vt -1.545085 545.4545
vt -29.35662 545.4545
vt 55.9017 545.4545
vt 25 545.4545
vt -26.54508 545.4545
vt -54.35662 545.4545
vt 65.45085 545.4545
vt 34.54915 545.4545
vt -36.09424 545.4545
vt -63.90576 545.4545
vt 25 545.4545
vt -30.9017 545.4545
vt 29.35661 545.4545
vt 1.545088 545.4545
vt -24.99999 545.4545
vt -55.90169 545.4545
vt 54.35661 545.4545
vt 26.54508 545.4545
vt -34.54914 545.4545
vt -65.45085 545.4545
vt 63.90577 545.4545
vt 36.09423 545.4545
vt -25 545.4545
vt 30.9017 636.3636
vt 0 636.3636
vt -1.545085 636.3636
vt -29.35662 636.3636
vt 55.9017 636.3636
vt 25 636.3636
vt -26.54508 636.3636
vt -54.35662 636.3636
vt 65.45085 636.3636
vt 34.54915 636.3636
vt -36.09424 636.3636
vt -63.90576 636.3636
vt 25 636.3636
vt -30.9017 636.3636
vt 29.35661 636.3636
vt 1.545089 636.3636
vt -24.99999 636.3636
vt -55.9017 636.3636
vt 54.35661 636.3636
vt 26.54508 636.3636
vt -34.54914 636.3636
vt -65.45085 636.3636
vt 63.90577 636.3636
vt 36.09423 636.3636
vt -25 636.3636
vt 30.9017 727.2727
vt 0 727.2727
vt -1.545085 727.2727
vt -29.35662 727.2727
vt 55.9017 727.2727
vt 25 727.2727
vt -26.54508 727.2727
vt -54.35662 727.2727
vt 65.45085 727.2727
vt 34.54915 727.2727
vt -36.09424 727.2727
vt -63.90576 727.2727
vt -30.9017 727.2727
vt 29.35661 727.2727
vt 1.545087 727.2727
vt -24.99999 727.2727
vt -55.90169 727.2727
vt 54.35661 727.2727
vt 26.54508 727.2727
vt -34.54914 727.2727
vt -65.45085 727.2727
vt 63.90577 727.2727
vt 36.09423 727.2727
vt -25 727.2727
vt 30.9017 818.1818
vt 0 818.1818
vt -1.545085 818.1818
vt -29.35662 818.1818
vt 25 727.2727
vt 55.9017 818.1818
vt 25 818.1818
vt -26.54508 818.1818
vt -54.35662 818.1818
vt 65.45085 818.1818
vt 34.54915 818.1818
vt -36.09424 818.1818
vt -63.90576 818.1818
vt 25 818.1818
vt -30.9017 818.1818
vt 29.35661 818.1818
vt 1.545089 818.1818
vt -24.99999 818.1818
vt -55.9017 818.1818
vt 54.35661 818.1818
vt 26.54508 818.1818
vt -34.54914 818.1818
vt -65.45085 818.1818
vt 63.90577 818.1818
vt 36.09423 818.1818
vt -25 818.1818
vt 30.9017 909.0909
vt 0 909.0909
vt -1.545085 909.0909
vt -29.35662 909.0909
vt 55.9017 909.0909
vt 25 909.0909
vt -26.54508 909.0909
vt -54.35662 909.0909
vt 65.45085 909.0909
vt 34.54915 909.0909
vt -36.09424 909.0909
vt -63.90576 909.0909
vt -30.9017 909.0909
vt 29.35661 909.0909
vt 1.545087 909.0909
vt -24.99999 909.0909
vt -55.90169 909.0909
vt 54.35661 909.0909
vt 26.54508 909.0909
vt -34.54914 909.0909
vt -65.45085 909.0909
vt 63.90577 909.0909
vt 36.09423 909.0909
vt -25 909.0909
vt 30.9017 1000
vt 0 1000
vt -1.545085 1000
vt -29.35662 1000
vt 25 909.0909
vt 55.9017 1000
vt 25 1000
vt -26.54508 1000
vt -54.35662 1000
vt 65.45085 1000
vt 34.54915 1000
vt -36.09424 1000
vt -63.90576 1000
vt 25 1000
vt -30.9017 1000
vt 29.35661 1000
vt 1.545089 1000
vt -24.99999 1000
vt -55.9017 1000
vt 54.35661 1000
vt 26.54508 1000
vt -34.54914 1000
vt -65.45085 1000
vt 63.90577 1000
vt 36.09423 1000
vt -25 1000
vt 9.549149 29.38926
vt 5 0
vt 13.59423 26.45034
vt -9.549149 29.38926
vt -13.59423 26.45034
vt -5 0
vt 34.54915 47.55283
vt 36.09424 42.79754
vt -34.54915 47.55283
vt -36.09424 42.79754
vt 65.45085 47.55283
vt 63.90576 42.79754
vt -65.45085 47.55283
vt -63.90576 42.79754
vt 90.45085 29.38926
vt 86.40577 26.45033
vt -90.45085 29.38926
vt -86.40577 26.45033
vt 100 -4.371139E-06
vt 95 -3.934025E-06
vt -100 -4.371139E-06
vt -95 -3.934025E-06
vt 90.45085 -29.38926
vt 86.40577 -26.45033
vt -90.45085 -29.38926
vt -86.40577 -26.45033
vt 65.45085 -47.55283
vt 63.90577 -42.79754
vt -65.45085 -47.55283
vt -63.90577 -42.79754
vt 34.54914 -47.55283
vt 36.09423 -42.79754
vt -34.54914 -47.55283
vt -36.09423 -42.79754
vt 9.549152 -29.38927
vt 13.59424 -26.45034
vt -9.549152 -29.38927
vt -13.59424 -26.45034

vn -0.9510565 0 0.3090169
vn 0.9510565 0 -0.309017
vn -0.5877852 0 0.8090171
vn 0.5877852 0 -0.8090171
vn 0 0 1
vn 0 0 -1
vn 0.5877853 0 0.8090169
vn -0.5877852 0 -0.8090171
vn 0.9510565 0 0.3090169
vn -0.9510566 0 -0.3090169
vn 0 -1 0
vn 0 1 0

usemtl ProBuilderDefault
f 3/3/1 4/4/1 2/2/1 1/1/1
f 7/7/2 8/8/2 6/6/2 5/5/2
f 10/11/3 3/12/3 1/10/3 9/9/3
f 8/15/4 12/16/4 11/14/4 6/13/4
f 14/19/5 10/20/5 9/18/5 13/17/5
f 12/23/6 16/24/6 15/22/6 11/21/6
f 18/11/7 14/26/7 13/25/7 17/9/7
f 16/15/8 20/16/8 19/14/8 15/13/8
f 22/3/9 18/4/9 17/2/9 21/1/9
f 20/7/10 24/8/10 23/6/10 19/5/10
f 26/4/2 22/28/2 21/27/2 25/2/2
f 24/31/1 28/32/1 27/30/1 23/29/1
f 30/35/4 26/36/4 25/34/4 29/33/4
f 28/39/3 32/40/3 31/38/3 27/37/3
f 34/43/6 30/44/6 29/42/6 33/41/6
f 32/47/5 36/48/5 35/46/5 31/45/5
f 38/50/8 34/36/8 33/34/8 37/49/8
f 36/39/7 40/40/7 39/38/7 35/37/7
f 4/4/10 38/28/10 37/27/10 2/2/10
f 40/31/9 7/32/9 5/30/9 39/29/9
f 41/51/1 42/52/1 4/4/1 3/3/1
f 43/53/2 44/54/2 8/8/2 7/7/2
f 45/55/3 41/56/3 3/12/3 10/11/3
f 44/57/4 46/58/4 12/16/4 8/15/4
f 47/59/5 45/60/5 10/20/5 14/19/5
f 46/61/6 48/62/6 16/24/6 12/23/6
f 49/55/7 47/63/7 14/26/7 18/11/7
f 48/57/8 50/58/8 20/16/8 16/15/8
f 51/51/9 49/52/9 18/4/9 22/3/9
f 50/53/10 52/54/10 24/8/10 20/7/10
f 53/52/2 51/64/2 22/28/2 26/4/2
f 52/65/1 54/66/1 28/32/1 24/31/1
f 55/67/4 53/68/4 26/36/4 30/35/4
f 54/69/3 56/70/3 32/40/3 28/39/3
f 57/71/6 55/72/6 30/44/6 34/43/6
f 56/73/5 58/74/5 36/48/5 32/47/5
f 59/75/8 57/68/8 34/36/8 38/50/8
f 58/69/7 60/70/7 40/40/7 36/39/7
f 42/52/10 59/64/10 38/28/10 4/4/10
f 60/65/9 43/66/9 7/32/9 40/31/9
f 61/76/1 62/77/1 42/52/1 41/51/1
f 63/78/2 64/79/2 44/54/2 43/53/2
f 65/80/3 61/81/3 41/56/3 45/55/3
f 64/82/4 66/83/4 46/58/4 44/57/4
f 67/84/5 65/85/5 45/60/5 47/59/5
f 66/86/6 68/87/6 48/62/6 46/61/6
f 69/80/7 67/88/7 47/63/7 49/55/7
f 68/82/8 70/83/8 50/58/8 48/57/8
f 71/76/9 69/77/9 49/52/9 51/51/9
f 70/78/10 72/79/10 52/54/10 50/53/10
f 73/77/2 71/89/2 51/64/2 53/52/2
f 72/90/1 74/91/1 54/66/1 52/65/1
f 75/92/4 73/93/4 53/68/4 55/67/4
f 74/94/3 76/95/3 56/70/3 54/69/3
f 77/96/6 75/97/6 55/72/6 57/71/6
f 76/98/5 78/99/5 58/74/5 56/73/5
f 79/100/8 77/93/8 57/68/8 59/75/8
f 78/94/7 80/95/7 60/70/7 58/69/7
f 62/77/10 79/89/10 59/64/10 42/52/10
f 80/90/9 63/91/9 43/66/9 60/65/9
f 81/101/1 82/102/1 62/77/1 61/76/1
f 83/103/2 84/104/2 64/79/2 63/78/2
f 85/105/3 81/106/3 61/81/3 65/80/3
f 84/107/4 86/108/4 66/83/4 64/82/4
f 87/109/5 85/110/5 65/85/5 67/84/5
f 86/111/6 88/112/6 68/87/6 66/86/6
f 89/105/7 87/113/7 67/88/7 69/80/7
f 88/107/8 90/108/8 70/83/8 68/82/8
f 91/101/9 89/102/9 69/77/9 71/76/9
f 90/103/10 92/104/10 72/79/10 70/78/10
f 93/102/2 91/114/2 71/89/2 73/77/2
f 92/115/1 94/116/1 74/91/1 72/90/1
f 95/117/4 93/118/4 73/93/4 75/92/4
f 94/119/3 96/120/3 76/95/3 74/94/3
f 97/121/6 95/122/6 75/97/6 77/96/6
f 96/123/5 98/124/5 78/99/5 76/98/5
f 99/125/8 97/118/8 77/93/8 79/100/8
f 98/119/7 100/120/7 80/95/7 78/94/7
f 82/102/10 99/114/10 79/89/10 62/77/10
f 100/115/9 83/116/9 63/91/9 80/90/9
f 101/126/1 102/127/1 82/102/1 81/101/1
f 103/128/2 104/129/2 84/104/2 83/103/2
f 105/130/3 101/131/3 81/106/3 85/105/3
f 104/132/4 106/133/4 86/108/4 84/107/4
f 107/134/5 105/135/5 85/110/5 87/109/5
f 106/136/6 108/137/6 88/112/6 86/111/6
f 109/130/7 107/138/7 87/113/7 89/105/7
f 108/132/8 110/133/8 90/108/8 88/107/8
f 111/126/9 109/127/9 89/102/9 91/101/9
f 110/128/10 112/129/10 92/104/10 90/103/10
f 113/127/2 111/139/2 91/114/2 93/102/2
f 112/140/1 114/141/1 94/116/1 92/115/1
f 115/142/4 113/143/4 93/118/4 95/117/4
f 114/144/3 116/145/3 96/120/3 94/119/3
f 117/146/6 115/147/6 95/122/6 97/121/6
f 116/148/5 118/149/5 98/124/5 96/123/5
f 119/150/8 117/143/8 97/118/8 99/125/8
f 118/144/7 120/145/7 100/120/7 98/119/7
f 102/127/10 119/139/10 99/114/10 82/102/10
f 120/140/9 103/141/9 83/116/9 100/115/9
f 121/151/1 122/152/1 102/127/1 101/126/1
f 123/153/2 124/154/2 104/129/2 103/128/2
f 125/155/3 121/156/3 101/131/3 105/130/3
f 124/157/4 126/158/4 106/133/4 104/132/4
f 127/159/5 125/160/5 105/135/5 107/134/5
f 126/161/6 128/162/6 108/137/6 106/136/6
f 129/155/7 127/163/7 107/138/7 109/130/7
f 128/157/8 130/158/8 110/133/8 108/132/8
f 131/151/9 129/152/9 109/127/9 111/126/9
f 130/153/10 132/154/10 112/129/10 110/128/10
f 133/152/2 131/164/2 111/139/2 113/127/2
f 132/165/1 134/166/1 114/141/1 112/140/1
f 135/167/4 133/168/4 113/143/4 115/142/4
f 134/169/3 136/170/3 116/145/3 114/144/3
f 137/171/6 135/172/6 115/147/6 117/146/6
f 136/173/5 138/174/5 118/149/5 116/148/5
f 139/175/8 137/168/8 117/143/8 119/150/8
f 138/169/7 140/170/7 120/145/7 118/144/7
f 122/152/10 139/164/10 119/139/10 102/127/10
f 140/165/9 123/166/9 103/141/9 120/140/9
f 141/176/1 142/177/1 122/152/1 121/151/1
f 143/178/2 144/179/2 124/154/2 123/153/2
f 145/180/3 141/181/3 121/156/3 125/155/3
f 144/182/4 146/183/4 126/158/4 124/157/4
f 147/184/5 145/185/5 125/160/5 127/159/5
f 146/186/6 148/187/6 128/162/6 126/161/6
f 149/180/7 147/188/7 127/163/7 129/155/7
f 148/182/8 150/183/8 130/158/8 128/157/8
f 151/176/9 149/177/9 129/152/9 131/151/9
f 150/178/10 152/179/10 132/154/10 130/153/10
f 153/177/2 151/189/2 131/164/2 133/152/2
f 152/190/1 154/191/1 134/166/1 132/165/1
f 155/192/4 153/193/4 133/168/4 135/167/4
f 154/194/3 156/195/3 136/170/3 134/169/3
f 157/196/6 155/197/6 135/172/6 137/171/6
f 156/198/5 158/199/5 138/174/5 136/173/5
f 159/200/8 157/193/8 137/168/8 139/175/8
f 158/194/7 160/195/7 140/170/7 138/169/7
f 142/177/10 159/189/10 139/164/10 122/152/10
f 160/190/9 143/191/9 123/166/9 140/165/9
f 161/201/1 162/202/1 142/177/1 141/176/1
f 163/203/2 164/204/2 144/179/2 143/178/2
f 165/205/3 161/206/3 141/188/3 145/180/3
f 164/207/4 166/208/4 146/183/4 144/182/4
f 167/209/5 165/210/5 145/185/5 147/184/5
f 166/211/6 168/212/6 148/187/6 146/186/6
f 169/205/7 167/206/7 147/188/7 149/180/7
f 168/207/8 170/208/8 150/183/8 148/182/8
f 171/201/9 169/202/9 149/177/9 151/176/9
f 170/203/10 172/204/10 152/179/10 150/178/10
f 173/202/2 171/213/2 151/189/2 153/177/2
f 172/214/1 174/215/1 154/191/1 152/190/1
f 175/216/4 173/217/4 153/193/4 155/192/4
f 174/218/3 176/219/3 156/195/3 154/194/3
f 177/220/6 175/221/6 155/197/6 157/196/6
f 176/222/5 178/223/5 158/199/5 156/198/5
f 179/224/8 177/217/8 157/193/8 159/200/8
f 178/218/7 180/219/7 160/195/7 158/194/7
f 162/202/10 179/213/10 159/189/10 142/177/10
f 180/214/9 163/215/9 143/191/9 160/190/9
f 181/225/1 182/226/1 162/202/1 161/201/1
f 183/227/2 184/228/2 164/204/2 163/203/2
f 185/230/3 181/231/3 161/229/3 165/205/3
f 184/232/4 186/233/4 166/208/4 164/207/4
f 187/234/5 185/235/5 165/210/5 167/209/5
f 186/236/6 188/237/6 168/212/6 166/211/6
f 189/230/7 187/238/7 167/206/7 169/205/7
f 188/232/8 190/233/8 170/208/8 168/207/8
f 191/225/9 189/226/9 169/202/9 171/201/9
f 190/227/10 192/228/10 172/204/10 170/203/10
f 193/226/2 191/239/2 171/213/2 173/202/2
f 192/240/1 194/241/1 174/215/1 172/214/1
f 195/242/4 193/243/4 173/217/4 175/216/4
f 194/244/3 196/245/3 176/219/3 174/218/3
f 197/246/6 195/247/6 175/221/6 177/220/6
f 196/248/5 198/249/5 178/223/5 176/222/5
f 199/250/8 197/243/8 177/217/8 179/224/8
f 198/244/7 200/245/7 180/219/7 178/218/7
f 182/226/10 199/239/10 179/213/10 162/202/10
f 200/240/9 183/241/9 163/215/9 180/214/9
f 201/251/1 202/252/1 182/226/1 181/225/1
f 203/253/2 204/254/2 184/228/2 183/227/2
f 205/255/3 201/256/3 181/238/3 185/230/3
f 204/257/4 206/258/4 186/233/4 184/232/4
f 207/259/5 205/260/5 185/235/5 187/234/5
f 206/261/6 208/262/6 188/237/6 186/236/6
f 209/255/7 207/256/7 187/238/7 189/230/7
f 208/257/8 210/258/8 190/233/8 188/232/8
f 211/251/9 209/252/9 189/226/9 191/225/9
f 210/253/10 212/254/10 192/228/10 190/227/10
f 213/252/2 211/263/2 191/239/2 193/226/2
f 212/264/1 214/265/1 194/241/1 192/240/1
f 215/266/4 213/267/4 193/243/4 195/242/4
f 214/268/3 216/269/3 196/245/3 194/244/3
f 217/270/6 215/271/6 195/247/6 197/246/6
f 216/272/5 218/273/5 198/249/5 196/248/5
f 219/274/8 217/267/8 197/243/8 199/250/8
f 218/268/7 220/269/7 200/245/7 198/244/7
f 202/252/10 219/263/10 199/239/10 182/226/10
f 220/264/9 203/265/9 183/241/9 200/240/9
f 221/275/1 222/276/1 202/252/1 201/251/1
f 223/277/2 224/278/2 204/254/2 203/253/2
f 225/280/3 221/281/3 201/279/3 205/255/3
f 224/282/4 226/283/4 206/258/4 204/257/4
f 227/284/5 225/285/5 205/260/5 207/259/5
f 226/286/6 228/287/6 208/262/6 206/261/6
f 229/280/7 227/288/7 207/256/7 209/255/7
f 228/282/8 230/283/8 210/258/8 208/257/8
f 231/275/9 229/276/9 209/252/9 211/251/9
f 230/277/10 232/278/10 212/254/10 210/253/10
f 233/276/2 231/289/2 211/263/2 213/252/2
f 232/290/1 234/291/1 214/265/1 212/264/1
f 235/292/4 233/293/4 213/267/4 215/266/4
f 234/294/3 236/295/3 216/269/3 214/268/3
f 237/296/6 235/297/6 215/271/6 217/270/6
f 236/298/5 238/299/5 218/273/5 216/272/5
f 239/300/8 237/293/8 217/267/8 219/274/8
f 238/294/7 240/295/7 220/269/7 218/268/7
f 222/276/10 239/289/10 219/263/10 202/252/10
f 240/290/9 223/291/9 203/265/9 220/264/9
f 5/302/11 6/303/11 1/301/11 2/2/11
f 224/305/12 223/306/12 222/2/12 221/304/12
f 6/303/11 11/308/11 9/307/11 1/301/11
f 226/310/12 224/305/12 221/304/12 225/309/12
f 11/308/11 15/312/11 13/311/11 9/307/11
f 228/314/12 226/310/12 225/309/12 227/313/12
f 15/312/11 19/316/11 17/315/11 13/311/11
f 230/318/12 228/314/12 227/313/12 229/317/12
f 19/316/11 23/320/11 21/319/11 17/315/11
f 232/322/12 230/318/12 229/317/12 231/321/12
f 23/320/11 27/324/11 25/323/11 21/319/11
f 234/326/12 232/322/12 231/321/12 233/325/12
f 27/324/11 31/328/11 29/327/11 25/323/11
f 236/330/12 234/326/12 233/325/12 235/329/12
f 31/328/11 35/332/11 33/331/11 29/327/11
f 238/334/12 236/330/12 235/329/12 237/333/12
f 35/332/11 39/336/11 37/335/11 33/331/11
f 240/338/12 238/334/12 237/333/12 239/337/12
f 39/336/11 5/302/11 2/2/11 37/335/11
f 223/306/12 240/338/12 239/337/12 222/2/12

