# ProBuilder 4.1.0
# https://unity3d.com/unity/features/worldbuilding/probuilder
# 2020/01/10 3:18:47

mtllib ./Rock.mtl
o Rock

g Rock
v 2195.941 1.079959 -3072.694
v 2196.368 0.5407355 -3072.591
v 2195.517 1.066467 -3072.459
v 2195.58 1.391386 -3073.223
v 2195.804 1.161386 -3073.732
v 2196.284 0.7172017 -3073.467
v 2194.924 0.664969 -3072.762
v 2195.517 0.0150044 -3072.266
v 2196.043 -0.1168488 -3072.517
v 2195.517 0.0150044 -3073.967
v 2194.828 0.3075092 -3073.531
v 2194.991 -0.136548 -3073.116

vt 0 1.701302
vt 0.3249197 0.8506508
vt -0.5257311 1.376382
vt 0 0
vt 0.5257311 0.8506508
vt 1.051462 0
vt 0.5257311 -0.8506508
vt 0.5257311 1.376382
vt -0.3249197 0.8506508
vt -0.5257311 0.8506508
vt -1.051462 1.701302
vt -1.376382 0.8506508
vt -0.5257311 0.3249197
vt 0.5257311 0.3249197
vt 1.051462 1.701302
vt 1.376382 0.8506508
vt -1.051462 0
vt -0.5257311 -0.8506508

vn 0.414745 0.4767874 0.7750229
vn 0.1918372 0.8974023 0.3973255
vn 0.6796706 0.7327963 -0.0325212
vn 0.6883984 0.7245201 -0.03432643
vn 0.7782341 0.6258246 0.05191566
vn -0.6287842 0.7328339 0.2599712
vn 0.2552683 0.1746915 0.950958
vn 0.8749018 -0.4518233 -0.1743632
vn 0.5152406 0.0467994 -0.8557669
vn -0.6165601 0.5794873 -0.5329617
vn -0.7850759 -0.3043431 0.5394731
vn -0.1228983 -0.961139 0.2471999
vn 0.08793902 -0.9886532 -0.1217844
vn -0.5811378 -0.6595675 -0.476707
vn -0.9653349 -0.1691767 0.1987658
vn -0.5303484 0.1532414 0.8338152
vn 0.4084933 -0.1002514 0.9072391
vn 0.7449405 -0.5836343 -0.3231636
vn -0.42381 0.2824504 -0.8605852
vn -0.7837952 0.594698 -0.1788833

usemtl ProBuilderDefault
f 3/3/1 2/2/1 1/1/1
f 4/6/2 3/5/2 1/4/2
f 5/7/3 4/6/3 1/4/3
f 6/9/4 5/8/4 1/1/4
f 2/10/5 6/5/5 1/1/5
f 7/12/6 3/3/6 4/11/6
f 8/13/7 2/2/7 3/3/7
f 9/4/8 6/5/8 2/10/8
f 10/14/9 5/8/9 6/9/9
f 11/16/10 4/15/10 5/8/10
f 8/13/11 7/12/11 12/17/11
f 9/4/12 8/10/12 12/17/12
f 10/18/13 9/4/13 12/17/13
f 11/16/14 10/14/14 12/6/14
f 7/5/15 11/10/15 12/4/15
f 3/3/16 7/12/16 8/13/16
f 2/2/17 8/13/17 9/4/17
f 6/9/18 9/4/18 10/14/18
f 5/8/19 10/14/19 11/16/19
f 4/1/20 11/10/20 7/5/20

